<?xml version="1.0" encoding="UTF-8"?>
<svg id="Ebene_1" data-name="Ebene 1" xmlns="http://www.w3.org/2000/svg" viewBox="0 0 906.05 523.59">
  <defs>
    <style>
      .cls-1 {
        fill: #e84747;
      }
    </style>
  </defs>
  <path class="cls-1" d="M699.15,177.74l-45.22,80.35-100.01.13-3.5,1.24-97.77,170.57-104.24-175.29-101.34,175.27L0,.07l801.72-.07,4.75,1.17,99.58,173.01-149.42,259.41-103.46,1.42-51.79,88.58h-201.45l-1.2-2.34,45.88-79.13,111.22.38,50.87-87.7,102.93-.77,103.1-179.51-50.89-90.82-3.96-1.96c-48.59.6-97.5-.63-145.77.13l-473.46-.05,108.43,187.11,99.55-178.82,103.69,178.84,53.31-91.2h195.53Z"/>
</svg>